# xmcd
#
# Track frame offsets:
#	183
#	10745
#	19745
#
# Disc length: 405 seconds
#
# Revision: 1
# Processed by: cddbd v1.4PL0 Copyright (c) Steve Scherf et al.
# Submitted via: MusicWizard 6.0.0
#
DISCID=15019303
DTITLE=Johnny Cash - Delia's Gone (Including 2 Previously Unreleased Tracks)
DYEAR=1994
DGENRE=Country
TTITLE0=Delia's Gone
TTITLE1=Old Chunk Of Coal
TTITLE2=Go On Blues
EXTD=YEAR: 1994
EXTT0=
EXTT1=
EXTT2=
PLAYORDER=
